<?xml version="1.0" encoding="UTF-8"?>
<svg width="300px" height="125px" viewBox="0 0 300 125" version="1.1" xmlns="http://www.w3.org/2000/svg" xmlns:xlink="http://www.w3.org/1999/xlink">
    <!-- Generator: Sketch 52.1 (67048) - http://www.bohemiancoding.com/sketch -->
    <title>Logo</title>
    <desc>Created with Sketch.</desc>
    <defs>
        <polygon id="path-1" points="0 0 219.878407 0 219.878407 65.6076667 0 65.6076667"></polygon>
    </defs>
    <g id="Symbols" stroke="none" stroke-width="1" fill="none" fill-rule="evenodd">
        <g id="header-/-desktop-large-01">
            <rect fill="#FFFFFF" x="0" y="0" width="1440" height="125"></rect>
            <g id="Logo" transform="translate(35.000000, 30.000000)">
                <g id="Page-1">
                    <mask id="mask-2" fill="white">
                        <use xlink:href="#path-1"></use>
                    </mask>
                    <g id="Clip-2"></g>
                    <path d="M152.460971,52.3707304 L152.460971,65.247201 L154.263838,65.247201 L154.263838,53.5295049 C155.113642,53.3494069 156.040554,53.2461471 156.787637,53.2461471 C157.508838,53.2461471 158.178275,53.2720294 158.770603,53.3494069 C158.873593,53.0145539 158.950701,52.344848 158.950701,51.8040147 C158.384525,51.7266373 157.585946,51.7012941 156.735873,51.7012941 C155.345235,51.7012941 153.594402,51.9843824 152.460971,52.3707304 Z M147.825603,57.5986961 L139.99673,57.5986961 C140.202711,54.9201422 141.464475,53.2205343 144.040039,53.2205343 C146.589451,53.2205343 147.825603,54.9460245 147.825603,57.4954363 L147.825603,57.5986961 Z M144.117147,51.6495294 C139.89374,51.6495294 138.16825,54.688549 138.16825,58.5256078 C138.16825,62.9552647 140.434574,65.5561716 144.735088,65.5561716 C146.203103,65.5561716 147.542245,65.3243088 148.829892,64.5774951 C148.958765,64.011049 149.061755,63.3157304 149.11325,62.8520049 C147.722613,63.6505833 146.177221,63.9592843 144.786583,63.9592843 C141.850824,63.9592843 140.228593,62.3111716 139.99673,59.2209265 L149.525211,59.2209265 C149.602319,58.7059755 149.628201,58.1651422 149.628201,57.6240392 C149.628201,54.302201 147.980088,51.6495294 144.117147,51.6495294 Z M137.390971,32.8950686 C136.288275,33.7316618 134.956951,34.2641373 133.322049,34.2641373 C129.59526,34.2641373 128.035848,31.526 128.035848,27.647152 C128.035848,23.3878873 130.051436,20.7257794 134.38673,20.7257794 C135.565456,20.7257794 136.516363,20.8020784 137.390971,20.9538676 L137.390971,32.8950686 Z M141.574206,18.2157304 C139.368275,17.4554363 137.124868,17.1513186 134.38673,17.1513186 C127.351314,17.1513186 123.776853,20.9538676 123.776853,27.647152 C123.776853,34.0357794 127.123495,37.6865392 132.143324,37.6865392 C134.805162,37.6865392 136.440333,36.6218578 137.505015,34.9486716 L137.733373,37.2303627 L141.574206,37.2303627 L141.574206,18.2157304 Z M130.184353,51.6495294 C128.613348,51.6495294 127.093838,52.0617598 125.677588,52.7311961 C124.77602,51.9843824 123.437147,51.6495294 121.634279,51.6495294 C119.986167,51.6495294 118.286289,51.9070049 116.561069,52.3707304 L116.561069,65.247201 L118.363667,65.247201 L118.363667,53.6068824 C119.368225,53.3750196 120.475235,53.2461471 121.453912,53.2461471 C124.209574,53.2461471 125.239745,54.2763186 125.239745,56.7745049 L125.239745,65.247201 L127.042613,65.247201 L127.042613,56.5426422 C127.042613,55.5124706 126.887858,54.6626667 126.60477,53.9932304 C127.686167,53.5295049 128.845211,53.2461471 130.029868,53.2461471 C132.682539,53.2461471 133.815431,54.482299 133.815431,56.8257304 L133.815431,65.247201 L135.618299,65.247201 L135.618299,56.5426422 C135.618299,53.4265147 134.072907,51.6495294 130.184353,51.6495294 Z M169.612613,63.5732059 L166.419108,63.5732059 L166.419108,56.8774951 L169.767368,56.8774951 C173.012098,56.8774951 174.608716,58.1651422 174.608716,60.251098 C174.608716,62.4915392 173.037711,63.5732059 169.612613,63.5732059 Z M166.419108,48.9715147 C167.320676,48.8682549 168.144868,48.8167598 168.968789,48.8167598 C172.780235,48.8167598 173.810676,50.1817843 173.810676,52.0358775 C173.810676,53.8902402 172.41977,55.2035 169.638495,55.2035 L166.419108,55.2035 L166.419108,48.9715147 Z M172.62575,55.9503137 C174.557221,55.3064902 175.638887,53.6327647 175.638887,51.8298971 C175.638887,48.9456324 173.733029,47.1427647 168.943176,47.1427647 C167.500775,47.1427647 165.981804,47.2716373 164.617049,47.5032304 L164.617049,65.247201 L169.79298,65.247201 C174.45423,65.247201 176.462809,63.3928382 176.462809,60.1737206 C176.462809,58.0106569 174.995064,56.3881569 172.62575,55.9503137 Z M121.912515,37.0780343 C122.140603,35.9753382 122.292931,34.682299 122.406706,33.5415882 C121.494353,33.8837206 120.353373,34.1118088 119.136632,34.1118088 C117.121044,34.1118088 115.904034,33.1611716 115.904034,30.6896765 L115.904034,21.372299 L122.140603,21.372299 C122.330946,20.2696029 122.44499,19.0906078 122.52102,17.7975686 L115.904034,17.7975686 L115.904034,10.6100931 C114.610995,10.6100931 113.014108,10.8004363 111.721069,11.218598 L111.721069,31.183598 C111.721069,35.8232794 114.306877,37.6865392 118.375799,37.6865392 C119.554794,37.6865392 120.771804,37.5344804 121.912515,37.0780343 Z M217.359083,51.9587696 L215.170137,51.9587696 L209.633201,57.9591618 L209.633201,58.1392598 L215.530603,65.247201 L217.771044,65.247201 L211.745039,58.0365392 L217.359083,51.9587696 Z M216.227809,17.1513186 C213.869819,17.1513186 210.865578,17.6074951 209.078078,18.2157304 L209.078078,37.2303627 L213.261583,37.2303627 L213.261583,20.9538676 C214.28825,20.8020784 215.314917,20.7257794 216.341583,20.7257794 C217.520578,20.7257794 218.50923,20.7637941 219.497882,20.8781078 C219.72624,20.0795294 219.878569,18.558402 219.878569,17.3033775 C218.965676,17.1890637 217.520578,17.1513186 216.227809,17.1513186 Z M197.992882,51.6495294 C196.55075,51.6495294 194.877025,51.9070049 193.151534,52.3707304 L193.151534,65.247201 L194.953863,65.247201 L194.953863,53.6068824 C195.932539,53.3750196 197.014206,53.2461471 197.941387,53.2461471 C201.10874,53.2461471 202.010309,54.482299 202.010309,56.8774951 L202.010309,65.247201 L203.813446,65.247201 L203.813446,56.5426422 C203.813446,53.4265147 202.345162,51.6495294 197.992882,51.6495294 Z M207.161167,65.247201 L208.963495,65.247201 L208.963495,47.1686471 C208.371167,47.1686471 207.753225,47.2457549 207.161167,47.4261225 L207.161167,65.247201 Z M187.845922,62.7490147 C186.995848,63.5732059 185.914181,64.0625441 184.575039,64.0625441 C181.767882,64.0625441 180.32602,62.0278137 180.32602,58.7059755 C180.32602,55.2549951 181.897025,53.2461471 185.347466,53.2461471 C186.274917,53.2461471 187.073225,53.3494069 187.845922,53.5553873 L187.845922,62.7490147 Z M178.49727,58.7059755 C178.49727,63.10975 180.763863,65.5561716 184.420824,65.5561716 C185.863225,65.5561716 187.047343,65.0153382 187.923299,64.2426422 L187.974525,65.247201 L189.64852,65.247201 L189.64852,52.3707304 C188.283495,51.8555098 186.944353,51.6495294 185.347466,51.6495294 C180.73798,51.6495294 178.49727,54.173598 178.49727,58.7059755 Z M191.812392,25.593549 C192.154794,22.360951 193.713936,20.64975 196.680162,20.64975 C199.570358,20.64975 201.243275,22.4749951 201.243275,25.593549 L191.812392,25.593549 Z M196.90798,17.1513186 C190.25352,17.1513186 187.629426,21.6386716 187.629426,27.30475 C187.629426,33.8076912 191.013814,37.6865392 198.010946,37.6865392 C200.254623,37.6865392 202.270211,37.3444069 204.171755,36.4695294 C204.438127,35.2147745 204.666216,33.7696765 204.818005,32.6669804 C202.726657,33.617348 200.406951,34.1118088 198.12499,34.1118088 C194.398471,34.1118088 192.420897,32.4766373 191.888422,29.09225 L205.236436,29.09225 C205.388495,27.9892843 205.464794,27.0389167 205.464794,25.859652 C205.464794,21.0681814 202.878716,17.1513186 196.90798,17.1513186 Z M153.744304,17.1513186 C151.728446,17.1513186 148.800505,17.5694804 146.138667,18.2157304 L146.138667,37.2303627 L150.321363,37.2303627 L150.321363,21.0301667 C151.462343,20.8398235 152.641338,20.7257794 153.63026,20.7257794 C157.813225,20.7257794 158.802147,22.1711471 158.802147,25.1751176 L158.802147,37.2303627 L162.984843,37.2303627 L162.984843,24.4528382 C162.984843,19.8511716 160.741436,17.1513186 153.744304,17.1513186 Z M56.6587892,48.7911471 C57.9208235,48.7911471 59.1569755,49.0227402 60.1871471,49.4090882 C60.3413627,48.9456324 60.4702353,48.3015392 60.4961176,47.683598 C59.3885686,47.2457549 57.9979314,47.0653873 56.6587892,47.0653873 C51.2507255,47.0653873 48.134598,50.4651422 48.134598,56.3366618 C48.134598,61.9250931 51.0962402,65.6076667 56.4786912,65.6076667 C57.8949412,65.6076667 59.0537157,65.4275686 60.0582745,65.0668333 C60.2127598,64.3971275 60.31575,63.7791863 60.3413627,63.1609755 C59.3114608,63.624701 57.9464363,63.8821765 56.7102843,63.8821765 C52.6413627,63.8821765 50.0145735,61.0750196 50.0145735,56.2592843 C50.0145735,51.3661716 52.6413627,48.7911471 56.6587892,48.7911471 Z M29.0202108,17.6452402 C28.9598186,16.2570294 28.5713137,14.8798725 27.8528088,13.6350931 L21.51325,2.65477451 C21.0298431,1.81764216 20.6960686,0.920387255 20.5103088,-5.39215686e-05 L20.2455539,0.459088235 C18.6764363,3.17673529 18.6761667,6.5249951 20.2452843,9.24264216 L25.3168775,18.0270049 C26.8859951,20.7449216 26.8859951,24.093451 25.3168775,26.811098 L25.0518529,27.2699706 C24.8666324,26.349799 24.5325882,25.4525441 24.0491814,24.6154118 L19.4062647,16.573549 L16.4416569,11.4388676 C15.95825,10.6014657 15.6244755,9.70421078 15.4387157,8.78403922 L15.1739608,9.24291176 C13.6102353,11.9516618 13.6053824,15.2864412 15.1585931,17.9992353 L15.1580539,17.9995049 L20.2455539,26.811098 C21.8146716,29.5290147 21.8146716,32.8775441 20.2455539,35.5951912 L19.9805294,36.0540637 C19.7950392,35.1338922 19.4609951,34.2366373 18.9775882,33.3995049 L12.638299,22.4191863 C11.7879559,20.9463186 11.399451,19.2887696 11.4706275,17.6463186 C4.68405882,19.4195294 -0.000107843137,23.1843333 -0.000107843137,27.5430833 C-0.000107843137,33.6073725 9.06410784,38.523402 20.2455539,38.523402 C31.4267304,38.523402 40.4909461,33.6073725 40.4909461,27.5430833 C40.4909461,23.1840637 35.807049,19.4181814 29.0202108,17.6452402 Z M176.714353,20.7257794 C177.817319,20.7257794 178.95776,20.8781078 180.060725,21.1061961 L180.060725,32.8187696 C178.920015,33.6936471 177.550946,34.2641373 175.87776,34.2641373 C172.150971,34.2641373 170.591828,31.526 170.591828,27.647152 C170.591828,23.3118578 172.569132,20.7257794 176.714353,20.7257794 Z M174.698765,37.6865392 C177.436902,37.6865392 179.072074,36.5838431 180.136755,34.7963431 L180.365113,37.2303627 L184.205946,37.2303627 L184.205946,10.6100931 C182.836877,10.6100931 181.353765,10.7244069 180.060725,11.1808529 L180.060725,17.4554363 C179.072074,17.2653627 178.045407,17.1513186 176.942441,17.1513186 C169.907294,17.1513186 166.332564,20.9538676 166.332564,27.647152 C166.332564,34.0357794 169.679206,37.6865392 174.698765,37.6865392 Z M55.8165343,34.0357794 C53.7246471,34.0357794 50.9867794,33.5415882 48.8571471,32.5529363 C48.4387157,33.7696765 48.2106275,34.8343578 48.134598,36.3937696 C50.2642304,37.3824216 52.8120245,37.838598 55.9303088,37.838598 C62.3952353,37.838598 65.7035931,34.8343578 65.7035931,30.461049 C65.7035931,26.7725441 63.6882745,24.6048971 58.8585196,22.5512941 L56.8051863,21.6766863 C54.1430784,20.5357059 52.6599657,19.3947255 52.6599657,17.417152 C52.6599657,15.4021029 54.1810931,14.1090637 57.489451,14.1090637 C59.2389363,14.1090637 61.6726863,14.4511961 63.7262892,15.2117598 C64.1064363,14.1090637 64.3725392,12.9300686 64.4865833,11.4089412 C62.3192059,10.6483775 59.9995,10.3059755 57.5274657,10.3059755 C51.3669265,10.3059755 48.3626863,13.0821275 48.3626863,17.417152 C48.3626863,21.4483284 50.7964363,23.4639167 54.3711667,25.0230588 L56.3107255,25.859652 C59.8854559,27.4187941 61.3302843,28.4454608 61.3302843,30.6511225 C61.3302843,32.8950686 59.3529804,34.0357794 55.8165343,34.0357794 Z M68.1707745,63.9339412 C65.2350147,63.9339412 63.6898922,62.0024706 63.6898922,58.5514902 C63.6898922,55.3838676 65.1576373,53.2720294 68.1707745,53.2720294 C71.0809216,53.2720294 72.6260441,55.2293824 72.6260441,58.6027157 C72.6260441,61.8477157 71.1580294,63.9339412 68.1707745,63.9339412 Z M68.2222696,51.6495294 C64.2307255,51.6495294 61.8614118,54.3278137 61.8614118,58.6800931 C61.8614118,62.6460245 63.9473676,65.5561716 68.0677843,65.5561716 C72.1367059,65.5561716 74.4545245,62.8778873 74.4545245,58.4741127 C74.4545245,54.5596765 72.3941814,51.6495294 68.2222696,51.6495294 Z M96.3189118,57.9332794 L95.1086422,57.5213186 C93.5120245,56.9804853 92.5074657,56.5426422 92.5074657,55.1005098 C92.5074657,53.8384755 93.5120245,53.1949216 95.4949902,53.1949216 C96.7567549,53.1949216 98.0702843,53.4006324 99.2549412,53.8384755 C99.4094265,53.3235245 99.4865343,52.7570784 99.5124167,52.3192353 C98.3277598,51.8555098 96.9371225,51.6495294 95.4434951,51.6495294 C92.533348,51.6495294 90.7822451,52.859799 90.7822451,55.1517353 C90.7822451,57.212348 92.0440098,58.3711225 94.3359461,59.0664412 L95.5206029,59.4269069 C96.7567549,59.8132549 98.1732745,60.3540882 98.1732745,61.8992108 C98.1732745,63.3672255 96.9627353,63.9851667 94.9797696,63.9851667 C93.6665098,63.9851667 91.9925147,63.6761961 90.7822451,62.9808775 C90.6533725,63.3413431 90.5503824,63.8306814 90.5245,64.5518824 C91.7350392,65.247201 93.2286667,65.5561716 95.0312647,65.5561716 C98.1217794,65.5561716 99.9243775,64.1914167 99.9243775,61.8477157 C99.9243775,59.6072745 98.3536422,58.628598 96.3189118,57.9332794 Z M111.255725,62.5430343 C110.277049,63.4702157 109.040897,64.011049 107.598765,64.011049 C105.280946,64.011049 104.199549,62.8778873 104.199549,60.1996029 L104.199549,51.9587696 L102.396681,51.9587696 L102.396681,60.5600686 C102.396681,63.9851667 104.044794,65.5561716 107.032319,65.5561716 C108.989402,65.5561716 110.302931,65.0668333 111.306951,64.0881569 L111.358716,65.247201 L113.058324,65.247201 L113.058324,51.9587696 L111.255725,51.9587696 L111.255725,62.5430343 Z M103.35352,37.2303627 L107.536755,37.2303627 L107.536755,24.4528382 C107.536755,19.8511716 105.293078,17.1513186 98.2959461,17.1513186 C96.2803578,17.1513186 93.3521471,17.5694804 90.6900392,18.2157304 L90.6900392,37.2303627 L94.8732745,37.2303627 L94.8732745,21.0301667 C96.0139853,20.8398235 97.1929804,20.7257794 98.1816324,20.7257794 C102.364868,20.7257794 103.35352,22.1711471 103.35352,25.1751176 L103.35352,37.2303627 Z M72.5877598,27.647152 C72.5877598,23.3878873 74.6030784,20.7257794 78.9383725,20.7257794 C80.1173676,20.7257794 81.0680049,20.8020784 81.9426127,20.9538676 L81.9426127,32.8950686 C80.8399167,33.7316618 79.5088627,34.2641373 77.8736912,34.2641373 C74.146902,34.2641373 72.5877598,31.526 72.5877598,27.647152 Z M82.0569265,34.9486716 L82.2850147,37.2303627 L86.125848,37.2303627 L86.125848,18.2157304 C83.9201863,17.4554363 81.6765098,17.1513186 78.9383725,17.1513186 C71.9032255,17.1513186 68.3284951,20.9538676 68.3284951,27.647152 C68.3284951,34.0357794 71.6751373,37.6865392 76.6949657,37.6865392 C79.3568039,37.6865392 80.9919755,36.6218578 82.0569265,34.9486716 Z M82.0003088,51.6495294 C80.5581765,51.6495294 78.8841814,51.9070049 77.1586912,52.3707304 L77.1586912,65.247201 L78.9612892,65.247201 L78.9612892,53.6068824 C79.9399657,53.3750196 81.0216324,53.2461471 81.9488137,53.2461471 C85.1164363,53.2461471 86.0177353,54.482299 86.0177353,56.8774951 L86.0177353,65.247201 L87.8203333,65.247201 L87.8203333,56.5426422 C87.8203333,53.4265147 86.3525882,51.6495294 82.0003088,51.6495294 Z" id="Fill-1" fill="#EC0000" mask="url(#mask-2)"></path>
                </g>
            </g>
        </g>
    </g>
</svg>
