<?xml version="1.0" encoding="UTF-8"?>
<svg width="22px" height="22px" viewBox="0 0 22 22" version="1.1" xmlns="http://www.w3.org/2000/svg" xmlns:xlink="http://www.w3.org/1999/xlink">
    <!-- Generator: Sketch 52.1 (67048) - http://www.bohemiancoding.com/sketch -->
    <title>Group 6</title>
    <desc>Created with Sketch.</desc>
    <g id="Symbols" stroke="none" stroke-width="1" fill="none" fill-rule="evenodd" stroke-linecap="round" stroke-linejoin="round">
        <g id="Btn-LightBlu-/-Button-LightBlu-Over-/-03-Step-A-Innest-04" transform="translate(-19.000000, -19.000000)" stroke="#1BB3BC" stroke-width="1.5">
            <g id="Group-6" transform="translate(20.000000, 20.000000)">
                <path d="M9.9965814,0.116255814 C7.61402326,0.116255814 5.1982093,1.99416279 5.60727907,4.50904651 L6.15634884,8.90183721 C6.45611628,10.8685814 7.97146512,12.1962558 9.9965814,12.1962558 C12.0216977,12.1962558 13.5437907,10.8685814 13.8435581,8.90183721 L14.3928605,4.50904651 C14.8019302,1.99416279 12.3791395,0.116255814 9.9965814,0.116255814 Z" id="Stroke-1"></path>
                <path d="M0.11627907,17.6873488 C0.11627907,16.009907 2.37348837,14.6501395 5.05813953,14.6501395 C5.71976744,14.6501395 6.61813953,14.8296744 7.27116279,14.9345581 C7.73837209,15.0096744 8.20186047,15.1087442 8.65930233,15.2292093 C9.10372093,15.3459535 9.53465116,15.4910698 10,15.4910698 C10.4876744,15.4910698 11.2574419,15.2480465 11.8934884,15.0957209 C12.8072093,14.8773488 14.0025581,14.6501395 14.9418605,14.6501395 C17.9130233,14.6501395 19.8837209,16.009907 19.8837209,17.6873488 L19.8837209,18.5110698 C19.8837209,19.2692093 19.2690698,19.8836279 18.5109302,19.8836279 L1.48906977,19.8836279 C0.730930233,19.8836279 0.11627907,19.2692093 0.11627907,18.5110698 L0.11627907,17.6873488 Z" id="Stroke-3"></path>
            </g>
        </g>
    </g>
</svg>